<svg xmlns="http://www.w3.org/2000/svg" xmlns:xlink="http://www.w3.org/1999/xlink" width="189.66796875" height="53.349609375">
    <path fill="#006DB6" stroke="black" d="M0.79 33.91L7.28 32.66Q7.28 33.63 7.31 34.37Q7.35 35.10 7.50 35.97Q7.65 36.84 7.90 37.40Q8.16 37.95 8.62 38.33Q9.09 38.71 9.72 38.71Q11.62 38.71 11.62 36.28Q11.62 32.96 7.88 29.67L5.89 27.98Q4.94 27.19 4.38 26.67Q3.81 26.14 3.05 25.24Q2.29 24.35 1.85 23.51Q1.42 22.68 1.12 21.50Q0.81 20.32 0.81 19.00Q0.81 15.15 3.25 12.91Q5.70 10.67 9.74 10.67Q13.10 10.67 15.45 13.06Q17.81 15.45 17.81 18.83L17.79 19.05Q17.79 19.28 17.79 19.58L11.18 20.50Q11.18 20.30 11.21 19.89Q11.23 19.48 11.23 19.21Q11.23 18.58 11.14 18Q11.06 17.42 10.85 16.84Q10.65 16.26 10.23 15.92Q9.81 15.57 9.21 15.57Q8.16 15.57 7.63 16.40Q7.10 17.23 7.10 18.35Q7.10 19.34 7.41 20.20Q7.72 21.06 8.34 21.81Q8.96 22.55 9.49 23.04Q10.02 23.54 10.90 24.25Q11.78 24.96 12.15 25.29Q13.50 26.49 14.43 27.54Q15.36 28.58 16.19 29.90Q17.02 31.22 17.43 32.75Q17.84 34.28 17.84 36.05Q17.84 39.38 15.47 41.49Q13.10 43.61 9.70 43.61Q7.51 43.61 5.80 42.80Q4.10 41.99 3.05 40.61Q2.00 39.22 1.44 37.53Q0.88 35.84 0.79 33.91ZM20.16 42.96L20.16 11.32L26.09 11.32L26.09 21.66Q26.95 20.69 28.13 20.09Q29.32 19.49 30.59 19.49Q31.80 19.49 32.76 20.27Q33.71 21.04 34.18 22.17Q34.65 23.29 34.65 24.49L34.65 42.96L28.72 42.96L28.72 26.03Q28.72 25.96 28.73 25.73Q28.74 25.49 28.73 25.34Q28.72 25.19 28.71 24.95Q28.71 24.71 28.65 24.57Q28.60 24.43 28.51 24.28Q28.42 24.12 28.27 24.05Q28.13 23.98 27.91 23.98Q27.56 23.98 27.16 24.26Q26.75 24.54 26.58 24.73Q26.40 24.93 26.09 25.29L26.09 42.96L20.16 42.96ZM46.04 37.07L46.04 25.72Q46.04 23.98 44.68 23.98Q43.47 23.98 43.47 25.72L43.47 37.07Q43.47 37.46 43.50 37.71Q43.52 37.97 43.63 38.31Q43.73 38.65 44.00 38.83Q44.26 39.01 44.68 39.01Q46.04 39.01 46.04 37.07M37.55 37.00L37.55 27.25Q37.55 23.57 39.28 21.54Q41.01 19.51 44.68 19.51Q48.36 19.51 50.13 21.54Q51.91 23.57 51.91 27.25L51.91 37.00Q51.91 39.87 49.78 41.67Q47.65 43.47 44.68 43.47Q42.77 43.47 41.15 42.69Q39.53 41.91 38.54 40.40Q37.55 38.90 37.55 37.00ZM54.93 42.96L54.93 20.02L60.82 20.02L60.82 21.88Q62.17 19.69 63.98 19.69Q64.49 19.69 65.58 19.86L65.58 24.86Q63.95 24.68 63.28 24.68Q62.07 24.68 61.44 25.43Q60.82 26.17 60.82 27.56L60.82 42.96L54.93 42.96ZM67.89 35.09L67.89 23.98L66.20 23.98L66.20 20.02L67.89 20.02L67.89 12.48L73.81 12.48L73.81 20.02L76.66 20.02L76.66 23.98L73.81 23.98L73.81 36.51Q73.81 37.46 74.16 37.92Q74.51 38.39 75.41 38.39Q76.43 38.39 77.13 38.29L77.13 42.87Q75.97 43.22 73.39 43.22Q72.35 43.22 71.52 42.98Q70.68 42.73 70.11 42.32Q69.54 41.91 69.13 41.27Q68.71 40.64 68.48 39.98Q68.24 39.32 68.11 38.44Q67.97 37.56 67.93 36.81Q67.89 36.05 67.89 35.09ZM79.05 32.40L79.05 21.92Q79.05 10.71 88.22 10.71Q90.16 10.71 91.66 11.22Q93.16 11.74 94.18 12.66Q95.20 13.57 95.86 14.91Q96.52 16.24 96.81 17.81Q97.10 19.37 97.10 21.25L97.10 23.98L90.81 23.98L90.81 21.06Q90.81 20.20 90.77 19.57Q90.74 18.95 90.59 18.15Q90.44 17.35 90.18 16.85Q89.93 16.35 89.43 16.00Q88.93 15.64 88.22 15.64Q85.45 15.64 85.45 20.32L85.45 33.98Q85.45 38.64 88.22 38.64Q89.05 38.64 89.61 38.16Q90.18 37.69 90.42 36.82Q90.67 35.95 90.76 35.11Q90.84 34.28 90.84 33.21L90.84 29.95L97.10 29.95L97.10 32.63Q97.07 34.44 96.80 35.96Q96.54 37.49 95.91 38.94Q95.27 40.38 94.30 41.37Q93.32 42.36 91.78 42.97Q90.23 43.58 88.22 43.58Q86.17 43.58 84.58 42.99Q82.99 42.40 81.96 41.41Q80.93 40.41 80.26 38.96Q79.59 37.51 79.32 35.91Q79.05 34.31 79.05 32.40ZM99.90 18.02L99.90 12.48L105.82 12.48L105.82 18.02L99.90 18.02M99.90 42.96L99.90 20.02L105.82 20.02L105.82 42.96L99.90 42.96ZM109.16 42.96L109.16 20.02L115.05 20.02L115.05 21.88Q116.40 19.69 118.21 19.69Q118.72 19.69 119.81 19.86L119.81 24.86Q118.18 24.68 117.51 24.68Q116.30 24.68 115.67 25.43Q115.05 26.17 115.05 27.56L115.05 42.96L109.16 42.96ZM120.76 37.09L120.76 27.25Q120.76 23.59 122.50 21.54Q124.24 19.49 127.81 19.49Q131.40 19.49 133.13 21.53Q134.86 23.57 134.86 27.25L134.86 29.25L129.04 29.25L129.04 26.63Q129.04 25.26 128.80 24.62Q128.57 23.98 127.81 23.98Q126.69 23.98 126.69 25.72L126.69 37.07Q126.69 39.01 127.81 39.01Q128.23 39.01 128.49 38.83Q128.74 38.65 128.86 38.23Q128.97 37.81 129.01 37.36Q129.04 36.91 129.04 36.11L129.04 33.66L134.86 33.66L134.86 37.09Q134.86 38.99 133.88 40.47Q132.89 41.96 131.29 42.71Q129.69 43.47 127.81 43.47Q124.91 43.47 122.84 41.70Q120.76 39.94 120.76 37.09ZM137.23 38.51L137.23 20.02L143.16 20.02L143.16 37.07Q143.16 39.01 143.96 39.01Q144.76 39.01 145.81 37.71L145.81 20.02L151.73 20.02L151.73 42.96L145.81 42.96L145.81 40.97Q144.91 42.06 143.72 42.77Q142.52 43.47 141.29 43.47Q139.48 43.47 138.36 41.93Q137.23 40.39 137.23 38.51ZM155.07 18.02L155.07 12.48L161.00 12.48L161.00 18.02L155.07 18.02M155.07 42.96L155.07 20.02L161.00 20.02L161.00 42.96L155.07 42.96ZM164.74 35.09L164.74 23.98L163.05 23.98L163.05 20.02L164.74 20.02L164.74 12.48L170.67 12.48L170.67 20.02L173.51 20.02L173.51 23.98L170.67 23.98L170.67 36.51Q170.67 37.46 171.02 37.92Q171.37 38.39 172.27 38.39Q173.29 38.39 173.99 38.29L173.99 42.87Q172.83 43.22 170.24 43.22Q169.21 43.22 168.37 42.98Q167.54 42.73 166.97 42.32Q166.39 41.91 165.98 41.27Q165.57 40.64 165.33 39.98Q165.09 39.32 164.96 38.44Q164.83 37.56 164.79 36.81Q164.74 36.05 164.74 35.09ZM175.10 37.42L179.63 35.81Q179.81 36.33 179.91 36.62Q180.02 36.91 180.27 37.47Q180.53 38.02 180.76 38.32Q181.00 38.62 181.38 38.87Q181.76 39.13 182.18 39.13Q183.29 39.13 183.29 37.83Q183.29 37.35 183.07 36.85Q182.85 36.35 182.61 35.99Q182.37 35.63 181.78 35.05Q181.20 34.47 180.88 34.19Q180.56 33.91 179.77 33.24L178.80 32.41Q176.92 30.78 175.85 29.20Q174.78 27.62 174.78 25.68Q174.78 24.19 175.40 22.98Q176.03 21.78 177.08 21.04Q178.14 20.30 179.45 19.91Q180.76 19.51 182.20 19.51Q183.48 19.51 184.66 20.06Q185.84 20.60 186.72 21.51Q187.61 22.41 188.26 23.55Q188.91 24.68 189.26 25.93L185.01 27.39Q184.80 26.86 184.66 26.52Q184.52 26.17 184.21 25.62Q183.90 25.07 183.61 24.73Q183.32 24.40 182.90 24.14Q182.48 23.89 182.02 23.89Q181.41 23.89 181.06 24.33Q180.72 24.77 180.72 25.33Q180.72 26.10 181.57 27.06Q182.43 28.02 183.92 29.27L185.01 30.23Q185.89 31.03 186.53 31.72Q187.17 32.41 187.81 33.29Q188.46 34.17 188.80 35.14Q189.14 36.11 189.14 37.07Q189.14 39.85 187.18 41.66Q185.22 43.47 182.44 43.47Q179.75 43.47 177.80 41.80Q175.85 40.13 175.10 37.42Z"/></svg>
